<svg width="212" height="212" viewBox="0 0 212 212" fill="none" xmlns="http://www.w3.org/2000/svg">
<path fill-rule="evenodd" clip-rule="evenodd" d="M106 212C164.542 212 212 164.542 212 106C212 47.4578 164.542 0 106 0C47.4578 0 0 47.4578 0 106C0 164.542 47.4578 212 106 212ZM58.624 107.264C61.376 108.48 64.32 109.664 67.456 110.816C68.672 111.264 69.952 111.712 71.296 112.16C72.704 112.608 73.984 113.184 75.136 113.888C76.288 114.528 77.248 115.328 78.016 116.288C78.784 117.184 79.168 118.304 79.168 119.648C79.168 121.888 78.56 123.648 77.344 124.928C76.192 126.144 74.24 126.752 71.488 126.752C68.8 126.752 66.752 126.304 65.344 125.408C64 124.512 63.328 123.264 63.328 121.664V121.088C63.328 119.744 62.688 119.072 61.408 119.072H45.76C44.544 119.072 43.904 119.712 43.84 120.992V121.376C43.84 124.768 44.544 127.808 45.952 130.496C47.424 133.12 49.408 135.36 51.904 137.216C54.4 139.072 57.312 140.48 60.64 141.44C64.032 142.4 67.68 142.88 71.584 142.88C75.552 142.88 79.232 142.4 82.624 141.44C86.08 140.48 89.056 139.008 91.552 137.024C94.048 134.976 96 132.448 97.408 129.44C98.88 126.368 99.616 122.72 99.616 118.496C99.616 115.488 99.104 112.864 98.08 110.624C97.12 108.384 95.68 106.432 93.76 104.768C91.904 103.04 89.6 101.504 86.848 100.16C84.096 98.816 80.96 97.536 77.44 96.32C73.216 94.848 70.144 93.536 68.224 92.384C66.304 91.232 65.344 89.632 65.344 87.584C65.344 83.04 67.648 80.768 72.256 80.768C74.56 80.768 76.288 81.28 77.44 82.304C78.656 83.264 79.264 84.48 79.264 85.952V86.432C79.264 87.776 79.904 88.448 81.184 88.448H96.832C98.048 88.448 98.688 87.808 98.752 86.528V86.144C98.752 82.752 98.08 79.744 96.736 77.12C95.392 74.432 93.536 72.16 91.168 70.304C88.8 68.448 85.952 67.04 82.624 66.08C79.36 65.12 75.776 64.64 71.872 64.64C67.904 64.64 64.256 65.12 60.928 66.08C57.664 66.976 54.848 68.384 52.48 70.304C50.112 72.224 48.256 74.688 46.912 77.696C45.568 80.704 44.896 84.32 44.896 88.544C44.896 91.936 45.472 94.784 46.624 97.088C47.84 99.392 49.44 101.376 51.424 103.04C53.472 104.64 55.872 106.048 58.624 107.264ZM125.933 141.44C127.277 141.44 127.949 140.768 127.949 139.424V125.216L166.349 68.384C166.797 67.68 166.861 67.136 166.541 66.752C166.285 66.304 165.805 66.08 165.101 66.08H145.805C145.293 66.08 144.877 66.208 144.557 66.464C144.237 66.72 143.917 67.104 143.597 67.616L127.949 93.152V67.904C127.949 66.688 127.277 66.08 125.933 66.08H110.189C108.909 66.08 108.269 66.688 108.269 67.904V139.424C108.269 140.768 108.909 141.44 110.189 141.44H125.933ZM146.861 139.904C147.117 140.928 147.853 141.44 149.069 141.44H168.173C169.773 141.44 170.253 140.704 169.613 139.232L148.685 103.52C147.853 102.112 146.989 102.112 146.093 103.52L136.589 117.536C136.269 117.984 136.109 118.464 136.109 118.976C136.173 119.424 136.301 119.84 136.493 120.224L146.861 139.904Z" fill="url(#paint0_linear_1_9)"/>
<defs>
<linearGradient id="paint0_linear_1_9" x1="106" y1="0" x2="106" y2="212" gradientUnits="userSpaceOnUse">
<stop stop-color="#00CC52"/>
<stop offset="1" stop-color="#006ACB" stop-opacity="0.5"/>
</linearGradient>
</defs>
</svg>
